<?xml version="1.0" encoding="utf-8"?>
<!-- Generator: Adobe Illustrator 25.2.0, SVG Export Plug-In . SVG Version: 6.00 Build 0)  -->
<svg version="1.1" id="图层_1" xmlns="http://www.w3.org/2000/svg" xmlns:xlink="http://www.w3.org/1999/xlink" x="0px" y="0px"
	 viewBox="0 0 160.4 162.5" style="enable-background:new 0 0 160.4 162.5;" xml:space="preserve">
<style type="text/css">
	.st0{fill:#333333;}
</style>
<path class="st0" d="M31.2,62.5h37.5c3.5,0,6.2-2.8,6.2-6.2S72.2,50,68.8,50H31.2c-3.5,0-6.2,2.8-6.2,6.2S27.8,62.5,31.2,62.5z
	 M31.2,93.8H100c3.5,0,6.2-2.8,6.2-6.2s-2.8-6.2-6.2-6.2H31.2c-3.5,0-6.2,2.8-6.2,6.2S27.8,93.8,31.2,93.8z M68.8,112.5H31.2
	c-3.5,0-6.2,2.8-6.2,6.2s2.8,6.2,6.2,6.2h37.5c3.5,0,6.2-2.8,6.2-6.2S72.2,112.5,68.8,112.5z M158.6,107.3l-22.1-22.1
	c-1.2-1.2-2.8-1.8-4.4-1.8s-3.2,0.6-4.4,1.8l-44.6,44.6c-1.2,1.2-1.8,2.8-1.8,4.4v22.1c0,3.5,2.8,6.2,6.2,6.2h22.1
	c1.7,0,3.2-0.7,4.4-1.8l44.6-44.6C161,113.7,161,109.7,158.6,107.3L158.6,107.3z M107,150H93.8v-13.3l38.3-38.3l13.3,13.3L107,150z"
	/>
<path class="st0" d="M62.5,150h-50V12.5h75l0,25c0,6.9,5.6,12.5,12.5,12.5h25v15.6c0,3.5,2.8,6.2,6.2,6.2s6.2-2.8,6.2-6.2V34.9
	c0-1.7-0.7-3.3-1.9-4.5L106.5,1.8c-1.2-1.1-2.7-1.8-4.4-1.8H6.2C2.8,0,0,2.8,0,6.2v150c0,3.5,2.8,6.2,6.2,6.2h56.2
	c3.5,0,6.2-2.8,6.2-6.2S66,150,62.5,150z M124.9,37.5h-25l0-24.6L124.9,37.5z"/>
</svg>
