<svg id="fb-qrcode" width="24" height="24" viewBox="0 0 24 24" fill="none" xmlns="http://www.w3.org/2000/svg">
<path d="M9 3H9.75C9.75 2.58579 9.41421 2.25 9 2.25V3ZM3 3V2.25C2.58579 2.25 2.25 2.58579 2.25 3H3ZM3 9H2.25C2.25 9.41421 2.58579 9.75 3 9.75V9ZM9 9V9.75C9.41421 9.75 9.75 9.41421 9.75 9H9ZM9 15H9.75C9.75 14.5858 9.41421 14.25 9 14.25V15ZM3 15V14.25C2.58579 14.25 2.25 14.5858 2.25 15H3ZM3 21H2.25C2.25 21.4142 2.58579 21.75 3 21.75V21ZM9 21V21.75C9.41421 21.75 9.75 21.4142 9.75 21H9ZM21 15H21.75C21.75 14.5858 21.4142 14.25 21 14.25V15ZM15 15V14.25C14.5858 14.25 14.25 14.5858 14.25 15H15ZM15 21H14.25C14.25 21.4142 14.5858 21.75 15 21.75V21ZM21 21V21.75C21.4142 21.75 21.75 21.4142 21.75 21H21ZM21 3H21.75C21.75 2.58579 21.4142 2.25 21 2.25V3ZM15 3V2.25C14.5858 2.25 14.25 2.58579 14.25 3H15ZM15 9H14.25C14.25 9.41421 14.5858 9.75 15 9.75V9ZM21 9V9.75C21.4142 9.75 21.75 9.41421 21.75 9H21ZM12.75 3C12.75 2.58579 12.4142 2.25 12 2.25C11.5858 2.25 11.25 2.58579 11.25 3H12H12.75ZM12 12V12.75H12.75V12H12ZM12.75 15C12.75 14.5858 12.4142 14.25 12 14.25C11.5858 14.25 11.25 14.5858 11.25 15H12H12.75ZM11.25 21C11.25 21.4142 11.5858 21.75 12 21.75C12.4142 21.75 12.75 21.4142 12.75 21H12H11.25ZM3 11.25C2.58579 11.25 2.25 11.5858 2.25 12C2.25 12.4142 2.58579 12.75 3 12.75V12V11.25ZM21 12.75C21.4142 12.75 21.75 12.4142 21.75 12C21.75 11.5858 21.4142 11.25 21 11.25V12V12.75ZM15 11.25C14.5858 11.25 14.25 11.5858 14.25 12C14.25 12.4142 14.5858 12.75 15 12.75V12V11.25ZM9 3V2.25H3V3V3.75H9V3ZM3 3H2.25V9H3H3.75V3H3ZM3 9V9.75H9V9V8.25H3V9ZM9 9H9.75V3H9H8.25V9H9ZM9 15V14.25H3V15V15.75H9V15ZM3 15H2.25V21H3H3.75V15H3ZM3 21V21.75H9V21V20.25H3V21ZM9 21H9.75V15H9H8.25V21H9ZM21 15V14.25H15V15V15.75H21V15ZM15 15H14.25V21H15H15.75V15H15ZM15 21V21.75H21V21V20.25H15V21ZM21 21H21.75V15H21H20.25V21H21ZM21 3V2.25H15V3V3.75H21V3ZM15 3H14.25V9H15H15.75V3H15ZM15 9V9.75H21V9V8.25H15V9ZM21 9H21.75V3H21H20.25V9H21ZM12 3H11.25V12H12H12.75V3H12ZM12 15H11.25V21H12H12.75V15H12ZM12 12V11.25H3V12V12.75H12V12ZM21 12V11.25H15V12V12.75H21V12Z" fill="white"/>
</svg>
