<svg xmlns="http://www.w3.org/2000/svg" viewBox="0 0 190 100" role="img" aria-label="United States Flag">
  <rect width="190" height="100" fill="#ffffff" />
  <g fill="#b22234">
    <rect y="0" width="190" height="7.6923" />
    <rect y="15.3846" width="190" height="7.6923" />
    <rect y="30.7692" width="190" height="7.6923" />
    <rect y="46.1538" width="190" height="7.6923" />
    <rect y="61.5385" width="190" height="7.6923" />
    <rect y="76.9231" width="190" height="7.6923" />
    <rect y="92.3077" width="190" height="7.6923" />
  </g>
  <rect width="76" height="53.8462" fill="#3c3b6e" />

  <defs>
    <symbol id="star" viewBox="0 0 10 10">
      <path fill="#ffffff" d="M5 0.6l1.3 2.8 3 0.3-2.3 2 0.7 3-2.7-1.6-2.7 1.6 0.7-3-2.3-2 3-0.3L5 0.6z"/>
    </symbol>
  </defs>

  <g>
    <g transform="translate(4.5 4.5)" >
      <!-- 9 rows: 6,5,6,5,6,5,6,5,6 -->
      <!-- Row 1 (6) -->
      <use href="#star" x="0" y="0" width="6" height="6" />
      <use href="#star" x="11" y="0" width="6" height="6" />
      <use href="#star" x="22" y="0" width="6" height="6" />
      <use href="#star" x="33" y="0" width="6" height="6" />
      <use href="#star" x="44" y="0" width="6" height="6" />
      <use href="#star" x="55" y="0" width="6" height="6" />

      <!-- Row 2 (5) -->
      <use href="#star" x="5.5" y="6" width="6" height="6" />
      <use href="#star" x="16.5" y="6" width="6" height="6" />
      <use href="#star" x="27.5" y="6" width="6" height="6" />
      <use href="#star" x="38.5" y="6" width="6" height="6" />
      <use href="#star" x="49.5" y="6" width="6" height="6" />

      <!-- Row 3 (6) -->
      <use href="#star" x="0" y="12" width="6" height="6" />
      <use href="#star" x="11" y="12" width="6" height="6" />
      <use href="#star" x="22" y="12" width="6" height="6" />
      <use href="#star" x="33" y="12" width="6" height="6" />
      <use href="#star" x="44" y="12" width="6" height="6" />
      <use href="#star" x="55" y="12" width="6" height="6" />

      <!-- Row 4 (5) -->
      <use href="#star" x="5.5" y="18" width="6" height="6" />
      <use href="#star" x="16.5" y="18" width="6" height="6" />
      <use href="#star" x="27.5" y="18" width="6" height="6" />
      <use href="#star" x="38.5" y="18" width="6" height="6" />
      <use href="#star" x="49.5" y="18" width="6" height="6" />

      <!-- Row 5 (6) -->
      <use href="#star" x="0" y="24" width="6" height="6" />
      <use href="#star" x="11" y="24" width="6" height="6" />
      <use href="#star" x="22" y="24" width="6" height="6" />
      <use href="#star" x="33" y="24" width="6" height="6" />
      <use href="#star" x="44" y="24" width="6" height="6" />
      <use href="#star" x="55" y="24" width="6" height="6" />

      <!-- Row 6 (5) -->
      <use href="#star" x="5.5" y="30" width="6" height="6" />
      <use href="#star" x="16.5" y="30" width="6" height="6" />
      <use href="#star" x="27.5" y="30" width="6" height="6" />
      <use href="#star" x="38.5" y="30" width="6" height="6" />
      <use href="#star" x="49.5" y="30" width="6" height="6" />

      <!-- Row 7 (6) -->
      <use href="#star" x="0" y="36" width="6" height="6" />
      <use href="#star" x="11" y="36" width="6" height="6" />
      <use href="#star" x="22" y="36" width="6" height="6" />
      <use href="#star" x="33" y="36" width="6" height="6" />
      <use href="#star" x="44" y="36" width="6" height="6" />
      <use href="#star" x="55" y="36" width="6" height="6" />

      <!-- Row 8 (5) -->
      <use href="#star" x="5.5" y="42" width="6" height="6" />
      <use href="#star" x="16.5" y="42" width="6" height="6" />
      <use href="#star" x="27.5" y="42" width="6" height="6" />
      <use href="#star" x="38.5" y="42" width="6" height="6" />
      <use href="#star" x="49.5" y="42" width="6" height="6" />

      <!-- Row 9 (6) -->
      <use href="#star" x="0" y="48" width="6" height="6" />
      <use href="#star" x="11" y="48" width="6" height="6" />
      <use href="#star" x="22" y="48" width="6" height="6" />
      <use href="#star" x="33" y="48" width="6" height="6" />
      <use href="#star" x="44" y="48" width="6" height="6" />
      <use href="#star" x="55" y="48" width="6" height="6" />
    </g>
  </g>
</svg>
